<svg width="54" height="31" viewBox="0 0 54 31" fill="none" xmlns="http://www.w3.org/2000/svg">
<path d="M0.952415 30V0.90909H4.30469V11.6477H4.58878C4.83499 11.2689 5.1759 10.786 5.61151 10.1989C6.05658 9.60227 6.69105 9.07197 7.51491 8.60795C8.34825 8.13447 9.47514 7.89773 10.8956 7.89773C12.7327 7.89773 14.352 8.35701 15.7536 9.27557C17.1551 10.1941 18.2488 11.4962 19.0348 13.1818C19.8208 14.8674 20.2138 16.8561 20.2138 19.1477C20.2138 21.4583 19.8208 23.4612 19.0348 25.1562C18.2488 26.8419 17.1598 28.1487 15.7678 29.0767C14.3757 29.9953 12.7706 30.4545 10.9524 30.4545C9.5509 30.4545 8.42874 30.2225 7.58594 29.7585C6.74313 29.285 6.09446 28.75 5.63991 28.1534C5.18537 27.5473 4.83499 27.0455 4.58878 26.6477H4.19105V30H0.952415ZM4.24787 19.0909C4.24787 20.7386 4.48935 22.1922 4.9723 23.4517C5.45526 24.7017 6.16075 25.6818 7.08878 26.392C8.01681 27.0928 9.15317 27.4432 10.4979 27.4432C11.8994 27.4432 13.0689 27.0739 14.0064 26.3352C14.9534 25.5871 15.6636 24.5833 16.1371 23.3239C16.62 22.0549 16.8615 20.6439 16.8615 19.0909C16.8615 17.5568 16.6248 16.1742 16.1513 14.9432C15.6873 13.7027 14.9818 12.7225 14.0348 12.0028C13.0973 11.2737 11.9183 10.9091 10.4979 10.9091C9.13423 10.9091 7.9884 11.2547 7.06037 11.946C6.13234 12.6278 5.43158 13.5843 4.9581 14.8153C4.48461 16.0369 4.24787 17.4621 4.24787 19.0909ZM34.4893 30.4545C32.3871 30.4545 30.5736 29.9905 29.049 29.0625C27.5339 28.125 26.3643 26.8182 25.5405 25.142C24.7261 23.4564 24.3189 21.4962 24.3189 19.2614C24.3189 17.0265 24.7261 15.0568 25.5405 13.3523C26.3643 11.6383 27.5102 10.303 28.978 9.34659C30.4553 8.38068 32.1787 7.89773 34.1484 7.89773C35.2848 7.89773 36.407 8.08712 37.5149 8.46591C38.6229 8.8447 39.6314 9.46023 40.5405 10.3125C41.4496 11.1553 42.174 12.2727 42.7138 13.6648C43.2536 15.0568 43.5234 16.7708 43.5234 18.8068V20.2273H26.7053V17.3295H40.1143C40.1143 16.0985 39.8681 15 39.3757 14.0341C38.8928 13.0682 38.2015 12.3059 37.3018 11.7472C36.4117 11.1884 35.3606 10.9091 34.1484 10.9091C32.8132 10.9091 31.6579 11.2405 30.6825 11.9034C29.7166 12.5568 28.9732 13.4091 28.4524 14.4602C27.9316 15.5114 27.6712 16.6383 27.6712 17.8409V19.7727C27.6712 21.4205 27.9553 22.8172 28.5234 23.9631C29.1011 25.0994 29.9013 25.9659 30.924 26.5625C31.9467 27.1496 33.1352 27.4432 34.4893 27.4432C35.37 27.4432 36.1655 27.3201 36.8757 27.0739C37.5954 26.8182 38.2157 26.4394 38.7365 25.9375C39.2573 25.4261 39.6598 24.7917 39.9439 24.0341L43.1825 24.9432C42.8416 26.0417 42.2687 27.0076 41.4638 27.8409C40.6589 28.6648 39.6645 29.3087 38.4808 29.7727C37.2971 30.2273 35.9666 30.4545 34.4893 30.4545ZM51.0661 30.2273C50.3653 30.2273 49.764 29.9763 49.2621 29.4744C48.7602 28.9725 48.5092 28.3712 48.5092 27.6705C48.5092 26.9697 48.7602 26.3684 49.2621 25.8665C49.764 25.3646 50.3653 25.1136 51.0661 25.1136C51.7668 25.1136 52.3681 25.3646 52.87 25.8665C53.3719 26.3684 53.6229 26.9697 53.6229 27.6705C53.6229 28.1345 53.5045 28.5606 53.2678 28.9489C53.0405 29.3371 52.7327 29.6496 52.3445 29.8864C51.9657 30.1136 51.5395 30.2273 51.0661 30.2273Z" fill="black"/>
</svg>
