<svg width="500" height="543" viewBox="0 0 500 543" fill="none" xmlns="http://www.w3.org/2000/svg">
<path d="M87.2026 341V159.182H108.154V226.298H109.93C111.469 223.931 113.599 220.912 116.322 217.243C119.104 213.514 123.069 210.2 128.218 207.3C133.427 204.34 140.47 202.861 149.347 202.861C160.829 202.861 170.95 205.731 179.71 211.472C188.469 217.213 195.305 225.351 200.218 235.886C205.13 246.421 207.586 258.85 207.586 273.173C207.586 287.615 205.13 300.132 200.218 310.727C195.305 321.262 188.499 329.429 179.798 335.229C171.098 340.97 161.066 343.841 149.703 343.841C140.943 343.841 133.93 342.391 128.662 339.491C123.395 336.531 119.34 333.187 116.499 329.459C113.659 325.671 111.469 322.534 109.93 320.048H107.444V341H87.2026ZM107.799 272.818C107.799 283.116 109.308 292.201 112.327 300.073C115.345 307.886 119.755 314.011 125.555 318.45C131.355 322.83 138.457 325.02 146.862 325.02C155.621 325.02 162.931 322.712 168.79 318.095C174.709 313.42 179.147 307.146 182.107 299.274C185.125 291.343 186.634 282.525 186.634 272.818C186.634 263.23 185.155 254.589 182.195 246.895C179.295 239.142 174.886 233.016 168.968 228.518C163.108 223.96 155.74 221.682 146.862 221.682C138.339 221.682 131.177 223.842 125.377 228.163C119.577 232.424 115.197 238.402 112.238 246.096C109.279 253.731 107.799 262.638 107.799 272.818ZM296.808 343.841C283.669 343.841 272.335 340.941 262.806 335.141C253.337 329.281 246.027 321.114 240.878 310.638C235.788 300.103 233.243 287.851 233.243 273.884C233.243 259.916 235.788 247.605 240.878 236.952C246.027 226.239 253.189 217.894 262.362 211.916C271.595 205.879 282.367 202.861 294.678 202.861C301.78 202.861 308.794 204.045 315.718 206.412C322.643 208.779 328.946 212.626 334.628 217.953C340.31 223.221 344.838 230.205 348.211 238.905C351.585 247.605 353.271 258.318 353.271 271.043V279.92H248.158V261.81H331.965C331.965 254.116 330.426 247.25 327.348 241.213C324.33 235.176 320.009 230.412 314.387 226.92C308.823 223.428 302.253 221.682 294.678 221.682C286.333 221.682 279.112 223.753 273.016 227.896C266.979 231.98 262.333 237.307 259.078 243.876C255.822 250.446 254.195 257.489 254.195 265.006V277.08C254.195 287.378 255.97 296.108 259.521 303.269C263.132 310.371 268.133 315.787 274.525 319.516C280.917 323.185 288.345 325.02 296.808 325.02C302.313 325.02 307.284 324.25 311.723 322.712C316.221 321.114 320.098 318.746 323.353 315.609C326.608 312.413 329.124 308.448 330.899 303.713L351.141 309.395C349.01 316.26 345.429 322.297 340.399 327.506C335.368 332.655 329.153 336.679 321.755 339.58C314.357 342.42 306.041 343.841 296.808 343.841ZM400.413 342.42C396.033 342.42 392.275 340.852 389.138 337.715C386.001 334.578 384.433 330.82 384.433 326.44C384.433 322.061 386.001 318.302 389.138 315.165C392.275 312.029 396.033 310.46 400.413 310.46C404.793 310.46 408.551 312.029 411.688 315.165C414.825 318.302 416.393 322.061 416.393 326.44C416.393 329.34 415.653 332.004 414.173 334.43C412.753 336.857 410.829 338.81 408.403 340.29C406.035 341.71 403.372 342.42 400.413 342.42Z" fill="#B21248"/>
<path d="M187.058 537.273C185.967 537.273 185.004 536.997 184.168 536.446C183.333 535.889 182.68 535.105 182.208 534.094C181.737 533.077 181.501 531.875 181.501 530.489C181.501 529.114 181.737 527.92 182.208 526.909C182.68 525.898 183.336 525.116 184.177 524.565C185.018 524.014 185.989 523.739 187.092 523.739C187.944 523.739 188.617 523.881 189.112 524.165C189.612 524.443 189.992 524.761 190.254 525.119C190.521 525.472 190.728 525.761 190.876 525.989H191.046V519.545H193.058V537H191.114V534.989H190.876C190.728 535.227 190.518 535.528 190.245 535.892C189.972 536.25 189.583 536.571 189.077 536.855C188.572 537.134 187.898 537.273 187.058 537.273ZM187.33 535.466C188.137 535.466 188.819 535.256 189.376 534.835C189.933 534.409 190.356 533.821 190.646 533.071C190.935 532.315 191.08 531.443 191.08 530.455C191.08 529.477 190.938 528.622 190.654 527.889C190.37 527.151 189.95 526.577 189.393 526.168C188.836 525.753 188.148 525.545 187.33 525.545C186.478 525.545 185.768 525.764 185.2 526.202C184.637 526.634 184.214 527.222 183.93 527.966C183.651 528.705 183.512 529.534 183.512 530.455C183.512 531.386 183.654 532.233 183.938 532.994C184.228 533.75 184.654 534.352 185.217 534.801C185.785 535.244 186.489 535.466 187.33 535.466ZM202.509 537.273C201.248 537.273 200.16 536.994 199.245 536.438C198.336 535.875 197.634 535.091 197.14 534.085C196.651 533.074 196.407 531.898 196.407 530.557C196.407 529.216 196.651 528.034 197.14 527.011C197.634 525.983 198.322 525.182 199.202 524.608C200.089 524.028 201.123 523.739 202.305 523.739C202.987 523.739 203.66 523.852 204.325 524.08C204.989 524.307 205.594 524.676 206.14 525.188C206.685 525.693 207.12 526.364 207.444 527.199C207.768 528.034 207.93 529.062 207.93 530.284V531.136H197.839V529.398H205.884C205.884 528.659 205.737 528 205.441 527.42C205.151 526.841 204.737 526.384 204.197 526.048C203.663 525.713 203.032 525.545 202.305 525.545C201.504 525.545 200.81 525.744 200.225 526.142C199.646 526.534 199.2 527.045 198.887 527.676C198.575 528.307 198.418 528.983 198.418 529.705V530.864C198.418 531.852 198.589 532.69 198.93 533.378C199.276 534.06 199.756 534.58 200.37 534.938C200.984 535.29 201.697 535.466 202.509 535.466C203.038 535.466 203.515 535.392 203.941 535.244C204.373 535.091 204.745 534.864 205.058 534.562C205.37 534.256 205.612 533.875 205.782 533.42L207.725 533.966C207.521 534.625 207.177 535.205 206.694 535.705C206.211 536.199 205.614 536.585 204.904 536.864C204.194 537.136 203.396 537.273 202.509 537.273ZM218.012 537V519.545H224.114C225.33 519.545 226.333 519.756 227.123 520.176C227.913 520.591 228.501 521.151 228.887 521.855C229.273 522.554 229.467 523.33 229.467 524.182C229.467 524.932 229.333 525.551 229.066 526.04C228.805 526.528 228.458 526.915 228.026 527.199C227.6 527.483 227.137 527.693 226.637 527.83V528C227.171 528.034 227.708 528.222 228.248 528.562C228.788 528.903 229.239 529.392 229.603 530.028C229.967 530.665 230.148 531.443 230.148 532.364C230.148 533.239 229.95 534.026 229.552 534.724C229.154 535.423 228.526 535.977 227.668 536.386C226.81 536.795 225.694 537 224.319 537H218.012ZM220.126 535.125H224.319C225.7 535.125 226.68 534.858 227.259 534.324C227.844 533.784 228.137 533.131 228.137 532.364C228.137 531.773 227.987 531.227 227.685 530.727C227.384 530.222 226.955 529.818 226.398 529.517C225.842 529.21 225.183 529.057 224.421 529.057H220.126V535.125ZM220.126 527.216H224.046C224.683 527.216 225.256 527.091 225.768 526.841C226.285 526.591 226.694 526.239 226.995 525.784C227.302 525.33 227.455 524.795 227.455 524.182C227.455 523.415 227.188 522.764 226.654 522.23C226.12 521.69 225.273 521.42 224.114 521.42H220.126V527.216ZM238.837 537.273C237.576 537.273 236.488 536.994 235.573 536.438C234.664 535.875 233.962 535.091 233.468 534.085C232.979 533.074 232.735 531.898 232.735 530.557C232.735 529.216 232.979 528.034 233.468 527.011C233.962 525.983 234.65 525.182 235.531 524.608C236.417 524.028 237.451 523.739 238.633 523.739C239.315 523.739 239.988 523.852 240.653 524.08C241.317 524.307 241.923 524.676 242.468 525.188C243.013 525.693 243.448 526.364 243.772 527.199C244.096 528.034 244.258 529.062 244.258 530.284V531.136H234.167V529.398H242.212C242.212 528.659 242.065 528 241.769 527.42C241.479 526.841 241.065 526.384 240.525 526.048C239.991 525.713 239.36 525.545 238.633 525.545C237.832 525.545 237.138 525.744 236.553 526.142C235.974 526.534 235.528 527.045 235.215 527.676C234.903 528.307 234.746 528.983 234.746 529.705V530.864C234.746 531.852 234.917 532.69 235.258 533.378C235.604 534.06 236.085 534.58 236.698 534.938C237.312 535.29 238.025 535.466 238.837 535.466C239.366 535.466 239.843 535.392 240.269 535.244C240.701 535.091 241.073 534.864 241.386 534.562C241.698 534.256 241.94 533.875 242.11 533.42L244.053 533.966C243.849 534.625 243.505 535.205 243.022 535.705C242.539 536.199 241.942 536.585 241.232 536.864C240.522 537.136 239.724 537.273 238.837 537.273ZM247.317 537V523.909H249.261V525.886H249.397C249.636 525.239 250.067 524.713 250.692 524.31C251.317 523.906 252.022 523.705 252.806 523.705C252.954 523.705 253.138 523.707 253.36 523.713C253.582 523.719 253.749 523.727 253.863 523.739V525.784C253.795 525.767 253.638 525.741 253.394 525.707C253.156 525.668 252.903 525.648 252.636 525.648C251.999 525.648 251.431 525.781 250.931 526.048C250.437 526.31 250.045 526.673 249.755 527.139C249.471 527.599 249.329 528.125 249.329 528.716V537H247.317ZM258.259 529.125V537H256.247V523.909H258.19V525.955H258.361C258.668 525.29 259.134 524.756 259.759 524.352C260.384 523.943 261.19 523.739 262.179 523.739C263.065 523.739 263.841 523.92 264.506 524.284C265.17 524.642 265.688 525.188 266.057 525.92C266.426 526.648 266.611 527.568 266.611 528.682V537H264.599V528.818C264.599 527.79 264.332 526.989 263.798 526.415C263.264 525.835 262.531 525.545 261.599 525.545C260.957 525.545 260.384 525.685 259.878 525.963C259.378 526.241 258.983 526.648 258.693 527.182C258.403 527.716 258.259 528.364 258.259 529.125ZM274.138 537.307C273.309 537.307 272.556 537.151 271.88 536.838C271.204 536.52 270.667 536.062 270.269 535.466C269.871 534.864 269.673 534.136 269.673 533.284C269.673 532.534 269.82 531.926 270.116 531.46C270.411 530.989 270.806 530.619 271.3 530.352C271.795 530.085 272.34 529.886 272.937 529.756C273.539 529.619 274.144 529.511 274.752 529.432C275.548 529.33 276.192 529.253 276.687 529.202C277.187 529.145 277.55 529.051 277.778 528.92C278.011 528.79 278.127 528.562 278.127 528.239V528.17C278.127 527.33 277.897 526.676 277.437 526.21C276.982 525.744 276.292 525.511 275.366 525.511C274.406 525.511 273.653 525.722 273.107 526.142C272.562 526.562 272.178 527.011 271.957 527.489L270.048 526.807C270.388 526.011 270.843 525.392 271.411 524.949C271.985 524.5 272.61 524.187 273.286 524.011C273.968 523.83 274.638 523.739 275.298 523.739C275.718 523.739 276.201 523.79 276.746 523.892C277.298 523.989 277.829 524.19 278.34 524.497C278.857 524.804 279.286 525.267 279.627 525.886C279.968 526.506 280.138 527.335 280.138 528.375V537H278.127V535.227H278.025C277.888 535.511 277.661 535.815 277.343 536.139C277.025 536.463 276.602 536.739 276.073 536.966C275.545 537.193 274.9 537.307 274.138 537.307ZM274.445 535.5C275.241 535.5 275.911 535.344 276.457 535.031C277.008 534.719 277.423 534.315 277.701 533.821C277.985 533.327 278.127 532.807 278.127 532.261V530.42C278.042 530.523 277.854 530.616 277.565 530.702C277.281 530.781 276.951 530.852 276.576 530.915C276.207 530.972 275.846 531.023 275.494 531.068C275.147 531.108 274.866 531.142 274.65 531.17C274.127 531.239 273.638 531.349 273.184 531.503C272.735 531.651 272.371 531.875 272.093 532.176C271.82 532.472 271.684 532.875 271.684 533.386C271.684 534.085 271.942 534.614 272.46 534.972C272.982 535.324 273.644 535.5 274.445 535.5ZM283.81 537V523.909H285.753V525.886H285.889C286.128 525.239 286.56 524.713 287.185 524.31C287.81 523.906 288.514 523.705 289.298 523.705C289.446 523.705 289.631 523.707 289.852 523.713C290.074 523.719 290.241 523.727 290.355 523.739V525.784C290.287 525.767 290.131 525.741 289.886 525.707C289.648 525.668 289.395 525.648 289.128 525.648C288.491 525.648 287.923 525.781 287.423 526.048C286.929 526.31 286.537 526.673 286.247 527.139C285.963 527.599 285.821 528.125 285.821 528.716V537H283.81ZM297.284 537.273C296.193 537.273 295.23 536.997 294.395 536.446C293.56 535.889 292.906 535.105 292.435 534.094C291.963 533.077 291.727 531.875 291.727 530.489C291.727 529.114 291.963 527.92 292.435 526.909C292.906 525.898 293.563 525.116 294.403 524.565C295.244 524.014 296.216 523.739 297.318 523.739C298.17 523.739 298.844 523.881 299.338 524.165C299.838 524.443 300.219 524.761 300.48 525.119C300.747 525.472 300.955 525.761 301.102 525.989H301.273V519.545H303.284V537H301.341V534.989H301.102C300.955 535.227 300.744 535.528 300.472 535.892C300.199 536.25 299.81 536.571 299.304 536.855C298.798 537.134 298.125 537.273 297.284 537.273ZM297.557 535.466C298.364 535.466 299.045 535.256 299.602 534.835C300.159 534.409 300.582 533.821 300.872 533.071C301.162 532.315 301.307 531.443 301.307 530.455C301.307 529.477 301.165 528.622 300.881 527.889C300.597 527.151 300.176 526.577 299.619 526.168C299.063 525.753 298.375 525.545 297.557 525.545C296.705 525.545 295.994 525.764 295.426 526.202C294.864 526.634 294.44 527.222 294.156 527.966C293.878 528.705 293.739 529.534 293.739 530.455C293.739 531.386 293.881 532.233 294.165 532.994C294.455 533.75 294.881 534.352 295.443 534.801C296.011 535.244 296.716 535.466 297.557 535.466ZM312.565 537.273C311.384 537.273 310.347 536.991 309.455 536.429C308.568 535.866 307.875 535.08 307.375 534.068C306.881 533.057 306.634 531.875 306.634 530.523C306.634 529.159 306.881 527.969 307.375 526.952C307.875 525.935 308.568 525.145 309.455 524.582C310.347 524.02 311.384 523.739 312.565 523.739C313.747 523.739 314.781 524.02 315.668 524.582C316.56 525.145 317.253 525.935 317.747 526.952C318.247 527.969 318.497 529.159 318.497 530.523C318.497 531.875 318.247 533.057 317.747 534.068C317.253 535.08 316.56 535.866 315.668 536.429C314.781 536.991 313.747 537.273 312.565 537.273ZM312.565 535.466C313.463 535.466 314.202 535.236 314.781 534.776C315.361 534.315 315.79 533.71 316.068 532.96C316.347 532.21 316.486 531.398 316.486 530.523C316.486 529.648 316.347 528.832 316.068 528.077C315.79 527.321 315.361 526.71 314.781 526.244C314.202 525.778 313.463 525.545 312.565 525.545C311.668 525.545 310.929 525.778 310.349 526.244C309.77 526.71 309.341 527.321 309.062 528.077C308.784 528.832 308.645 529.648 308.645 530.523C308.645 531.398 308.784 532.21 309.062 532.96C309.341 533.71 309.77 534.315 310.349 534.776C310.929 535.236 311.668 535.466 312.565 535.466Z" fill="#B21248"/>
</svg>
