<svg width="32" height="26" viewBox="0 0 32 26" fill="none" xmlns="http://www.w3.org/2000/svg">
<path d="M28.8 6.7999L16 14.7999L3.2 6.7999V3.5999L16 11.5999L28.8 3.5999M28.8 0.399902H3.2C1.424 0.399902 0 1.8239 0 3.5999V22.7999C0 23.6486 0.337142 24.4625 0.937258 25.0626C1.53737 25.6628 2.35131 25.9999 3.2 25.9999H28.8C29.6487 25.9999 30.4626 25.6628 31.0627 25.0626C31.6629 24.4625 32 23.6486 32 22.7999V3.5999C32 2.75121 31.6629 1.93728 31.0627 1.33716C30.4626 0.737044 29.6487 0.399902 28.8 0.399902Z" fill="black"/>
</svg>
