<svg width="1366" height="1928" viewBox="0 0 1366 1928" fill="none" xmlns="http://www.w3.org/2000/svg">
<g clip-path="url(#clip0_16_27)">
<rect width="1366" height="1928" fill="#F5F5F5"/>
<path d="M-71 169.224L-23.0833 169.023C24.8333 168.823 120.667 168.422 216.5 236.752C312.333 305.082 408.167 442.143 504 555.315C599.833 668.486 695.667 757.768 791.5 794.041C887.333 830.314 983.167 813.578 1079 726.057C1174.83 638.536 1270.67 480.23 1366.5 404.803C1462.33 329.377 1558.17 336.83 1606.08 340.557L1654 344.284" stroke="#E2FED5" stroke-width="20"/>
<path d="M-71 236.224L-23.0833 236.023C24.8333 235.823 120.667 235.422 216.5 303.752C312.333 372.082 408.167 509.143 504 622.315C599.833 735.486 695.667 824.768 791.5 861.041C887.333 897.314 983.167 880.578 1079 793.057C1174.83 705.536 1270.67 547.23 1366.5 471.803C1462.33 396.377 1558.17 403.83 1606.08 407.557L1654 411.284" stroke="#E2FED5" stroke-width="10"/>
<path d="M94 -341.776L141.917 -341.977C189.833 -342.177 285.667 -342.578 381.5 -274.248C477.333 -205.918 573.167 -68.8569 669 44.3146C764.833 157.486 860.667 246.768 956.5 283.041C1052.33 319.314 1148.17 302.578 1244 215.057C1339.83 127.536 1435.67 -30.7701 1531.5 -106.197C1627.33 -181.623 1723.17 -174.17 1771.08 -170.443L1819 -166.716" stroke="#E2FED5" stroke-width="10"/>
<path d="M-135 1529.22L-87.0833 1529.02C-39.1667 1528.82 56.6667 1528.42 152.5 1596.75C248.333 1665.08 344.167 1802.14 440 1915.31C535.833 2028.49 631.667 2117.77 727.5 2154.04C823.333 2190.31 919.167 2173.58 1015 2086.06C1110.83 1998.54 1206.67 1840.23 1302.5 1764.8C1398.33 1689.38 1494.17 1696.83 1542.08 1700.56L1590 1704.28" stroke="#E2FED5" stroke-width="10"/>
<path d="M-135 1462.22L-87.0833 1462.02C-39.1667 1461.82 56.6667 1461.42 152.5 1529.75C248.333 1598.08 344.167 1735.14 440 1848.31C535.833 1961.49 631.667 2050.77 727.5 2087.04C823.333 2123.31 919.167 2106.58 1015 2019.06C1110.83 1931.54 1206.67 1773.23 1302.5 1697.8C1398.33 1622.38 1494.17 1629.83 1542.08 1633.56L1590 1637.28" stroke="#E2FED5" stroke-width="20"/>
<path d="M-189 595.333L-117.833 595.035C-46.6667 594.737 95.6667 594.141 238 695.627C380.333 797.112 522.667 1000.68 665 1168.76C807.333 1336.85 949.667 1469.45 1092 1523.33C1234.33 1577.2 1382 1516.67 1460 1574" stroke="#E2FED5" stroke-width="20"/>
<path d="M-169 562.333L-97.8333 562.035C-26.6667 561.737 115.667 561.141 258 662.627C400.333 764.112 542.667 967.679 685 1135.76C827.333 1303.85 969.667 1436.45 1112 1490.33C1254.33 1544.2 1402 1483.67 1480 1541" stroke="#E2FED5" stroke-width="10"/>
</g>
<defs>
<clipPath id="clip0_16_27">
<rect width="1366" height="1928" fill="white"/>
</clipPath>
</defs>
</svg>
