<svg width="32" height="32" viewBox="0 0 32 32" fill="none" xmlns="http://www.w3.org/2000/svg">
<path d="M6.71564 3.55714C6.71519 4.50008 6.36099 5.40421 5.73097 6.07063C5.10094 6.73706 4.24669 7.11119 3.35614 7.11072C2.46559 7.11025 1.61169 6.73521 0.982295 6.06812C0.352897 5.40103 -0.000444854 4.49652 4.20334e-07 3.55358C0.000445695 2.61064 0.354642 1.70651 0.984669 1.04008C1.6147 0.373658 2.46895 -0.000471025 3.3595 4.45062e-07C4.25005 0.000471915 5.10394 0.375505 5.73334 1.0426C6.36274 1.70969 6.71608 2.6142 6.71564 3.55714ZM6.81637 9.74346H0.100735V32H6.81637V9.74346ZM17.4271 9.74346H10.745V32H17.3599V20.3207C17.3599 13.8143 25.3683 13.2099 25.3683 20.3207V32H32V17.903C32 6.93473 20.1469 7.34359 17.3599 12.73L17.4271 9.74346Z" fill="black"/>
</svg>
